<mxfile host="Electron" modified="2023-04-10T21:32:44.264Z" agent="Mozilla/5.0 (X11; Linux x86_64) AppleWebKit/537.36 (KHTML, like Gecko) draw.io/21.1.2 Chrome/106.0.5249.199 Electron/21.4.3 Safari/537.36" etag="nY934IZ_0T6g8UCtN3al" version="21.1.2" type="device">
  <diagram name="Page-1" id="xFve3AKenTTj-rfzsBR3">
    <mxGraphModel dx="2074" dy="1194" grid="1" gridSize="10" guides="1" tooltips="1" connect="1" arrows="1" fold="1" page="1" pageScale="1" pageWidth="850" pageHeight="1100" math="0" shadow="0">
      <root>
        <mxCell id="0" />
        <mxCell id="1" parent="0" />
        <mxCell id="2Mf-9AT1YDmep9Q1KUnl-1" value="&lt;u&gt;:Player&lt;/u&gt;" style="shape=umlActor;verticalLabelPosition=bottom;verticalAlign=top;html=1;outlineConnect=0;" parent="1" vertex="1">
          <mxGeometry x="80" y="200" width="40" height="80" as="geometry" />
        </mxCell>
        <mxCell id="2Mf-9AT1YDmep9Q1KUnl-64" style="edgeStyle=orthogonalEdgeStyle;rounded=0;orthogonalLoop=1;jettySize=auto;html=1;exitX=0.5;exitY=1;exitDx=0;exitDy=0;endArrow=none;endFill=0;dashed=1;" parent="1" edge="1">
          <mxGeometry relative="1" as="geometry">
            <mxPoint x="100.34482758620697" y="659.52" as="targetPoint" />
            <mxPoint x="100" y="629.52" as="sourcePoint" />
          </mxGeometry>
        </mxCell>
        <mxCell id="2Mf-9AT1YDmep9Q1KUnl-2" value="" style="rounded=1;whiteSpace=wrap;html=1;" parent="1" vertex="1">
          <mxGeometry x="90" y="320" width="20" height="320" as="geometry" />
        </mxCell>
        <mxCell id="2Mf-9AT1YDmep9Q1KUnl-67" style="edgeStyle=orthogonalEdgeStyle;rounded=0;orthogonalLoop=1;jettySize=auto;html=1;exitX=0.5;exitY=1;exitDx=0;exitDy=0;endArrow=none;endFill=0;dashed=1;" parent="1" edge="1">
          <mxGeometry relative="1" as="geometry">
            <mxPoint x="290" y="659.52" as="targetPoint" />
            <mxPoint x="290" y="629.52" as="sourcePoint" />
          </mxGeometry>
        </mxCell>
        <mxCell id="2Mf-9AT1YDmep9Q1KUnl-3" value="" style="rounded=1;whiteSpace=wrap;html=1;" parent="1" vertex="1">
          <mxGeometry x="280" y="335" width="20" height="305" as="geometry" />
        </mxCell>
        <mxCell id="2Mf-9AT1YDmep9Q1KUnl-63" style="edgeStyle=orthogonalEdgeStyle;rounded=0;orthogonalLoop=1;jettySize=auto;html=1;exitX=0.5;exitY=1;exitDx=0;exitDy=0;entryX=0.5;entryY=0;entryDx=0;entryDy=0;endArrow=none;endFill=0;dashed=1;" parent="1" source="2Mf-9AT1YDmep9Q1KUnl-4" target="2Mf-9AT1YDmep9Q1KUnl-50" edge="1">
          <mxGeometry relative="1" as="geometry" />
        </mxCell>
        <mxCell id="2Mf-9AT1YDmep9Q1KUnl-4" value="" style="rounded=1;whiteSpace=wrap;html=1;" parent="1" vertex="1">
          <mxGeometry x="430" y="350" width="20" height="60" as="geometry" />
        </mxCell>
        <mxCell id="2Mf-9AT1YDmep9Q1KUnl-6" value="" style="endArrow=classic;html=1;rounded=0;exitX=1;exitY=0.088;exitDx=0;exitDy=0;exitPerimeter=0;entryX=0;entryY=0.049;entryDx=0;entryDy=0;entryPerimeter=0;" parent="1" source="2Mf-9AT1YDmep9Q1KUnl-2" target="2Mf-9AT1YDmep9Q1KUnl-3" edge="1">
          <mxGeometry width="50" height="50" relative="1" as="geometry">
            <mxPoint x="410" y="350" as="sourcePoint" />
            <mxPoint x="240" y="350" as="targetPoint" />
          </mxGeometry>
        </mxCell>
        <mxCell id="2Mf-9AT1YDmep9Q1KUnl-61" style="edgeStyle=orthogonalEdgeStyle;rounded=0;orthogonalLoop=1;jettySize=auto;html=1;exitX=0.5;exitY=1;exitDx=0;exitDy=0;entryX=0.5;entryY=0;entryDx=0;entryDy=0;endArrow=none;endFill=0;dashed=1;" parent="1" source="2Mf-9AT1YDmep9Q1KUnl-9" target="2Mf-9AT1YDmep9Q1KUnl-3" edge="1">
          <mxGeometry relative="1" as="geometry" />
        </mxCell>
        <mxCell id="2Mf-9AT1YDmep9Q1KUnl-9" value="&lt;u&gt;:Game&lt;/u&gt;" style="rounded=1;whiteSpace=wrap;html=1;" parent="1" vertex="1">
          <mxGeometry x="240" y="200" width="100" height="80" as="geometry" />
        </mxCell>
        <mxCell id="2Mf-9AT1YDmep9Q1KUnl-62" style="edgeStyle=orthogonalEdgeStyle;rounded=0;orthogonalLoop=1;jettySize=auto;html=1;exitX=0.5;exitY=1;exitDx=0;exitDy=0;entryX=0.5;entryY=0;entryDx=0;entryDy=0;endArrow=none;endFill=0;dashed=1;" parent="1" source="2Mf-9AT1YDmep9Q1KUnl-34" target="2Mf-9AT1YDmep9Q1KUnl-4" edge="1">
          <mxGeometry relative="1" as="geometry" />
        </mxCell>
        <mxCell id="2Mf-9AT1YDmep9Q1KUnl-34" value="&lt;u&gt;:System&lt;/u&gt;" style="rounded=1;whiteSpace=wrap;html=1;" parent="1" vertex="1">
          <mxGeometry x="390" y="200" width="100" height="80" as="geometry" />
        </mxCell>
        <mxCell id="2Mf-9AT1YDmep9Q1KUnl-35" value="Click Launch Icon" style="text;html=1;align=center;verticalAlign=middle;resizable=0;points=[];autosize=1;strokeColor=none;fillColor=none;" parent="1" vertex="1">
          <mxGeometry x="135" y="320" width="120" height="30" as="geometry" />
        </mxCell>
        <mxCell id="2Mf-9AT1YDmep9Q1KUnl-38" value="" style="endArrow=classic;html=1;rounded=0;exitX=1;exitY=0.088;exitDx=0;exitDy=0;exitPerimeter=0;" parent="1" edge="1">
          <mxGeometry width="50" height="50" relative="1" as="geometry">
            <mxPoint x="300" y="365" as="sourcePoint" />
            <mxPoint x="430" y="365" as="targetPoint" />
          </mxGeometry>
        </mxCell>
        <mxCell id="2Mf-9AT1YDmep9Q1KUnl-39" value="Run.exe" style="text;html=1;align=center;verticalAlign=middle;resizable=0;points=[];autosize=1;strokeColor=none;fillColor=none;" parent="1" vertex="1">
          <mxGeometry x="325" y="335" width="70" height="30" as="geometry" />
        </mxCell>
        <mxCell id="2Mf-9AT1YDmep9Q1KUnl-41" value="" style="endArrow=classic;html=1;rounded=0;" parent="1" edge="1">
          <mxGeometry width="50" height="50" relative="1" as="geometry">
            <mxPoint x="430" y="400" as="sourcePoint" />
            <mxPoint x="300" y="400" as="targetPoint" />
          </mxGeometry>
        </mxCell>
        <mxCell id="2Mf-9AT1YDmep9Q1KUnl-42" value="Opens Game" style="text;html=1;align=center;verticalAlign=middle;resizable=0;points=[];autosize=1;strokeColor=none;fillColor=none;" parent="1" vertex="1">
          <mxGeometry x="325" y="370" width="90" height="30" as="geometry" />
        </mxCell>
        <mxCell id="2Mf-9AT1YDmep9Q1KUnl-43" value="" style="endArrow=classic;html=1;rounded=0;" parent="1" edge="1">
          <mxGeometry width="50" height="50" relative="1" as="geometry">
            <mxPoint x="280" y="430" as="sourcePoint" />
            <mxPoint x="110" y="430" as="targetPoint" />
          </mxGeometry>
        </mxCell>
        <mxCell id="2Mf-9AT1YDmep9Q1KUnl-44" value="queryUsNmPswd()" style="text;html=1;align=center;verticalAlign=middle;resizable=0;points=[];autosize=1;strokeColor=none;fillColor=none;" parent="1" vertex="1">
          <mxGeometry x="135" y="400" width="120" height="30" as="geometry" />
        </mxCell>
        <mxCell id="2Mf-9AT1YDmep9Q1KUnl-46" value="" style="endArrow=classic;html=1;rounded=0;exitX=1;exitY=0.088;exitDx=0;exitDy=0;exitPerimeter=0;" parent="1" edge="1">
          <mxGeometry width="50" height="50" relative="1" as="geometry">
            <mxPoint x="110" y="470" as="sourcePoint" />
            <mxPoint x="280" y="470" as="targetPoint" />
          </mxGeometry>
        </mxCell>
        <mxCell id="2Mf-9AT1YDmep9Q1KUnl-47" value="&lt;font style=&quot;font-size: 10px;&quot;&gt;Enters Username and Password&lt;/font&gt;" style="text;html=1;align=center;verticalAlign=middle;resizable=0;points=[];autosize=1;strokeColor=none;fillColor=none;" parent="1" vertex="1">
          <mxGeometry x="110" y="440" width="170" height="30" as="geometry" />
        </mxCell>
        <mxCell id="2Mf-9AT1YDmep9Q1KUnl-68" style="edgeStyle=orthogonalEdgeStyle;rounded=0;orthogonalLoop=1;jettySize=auto;html=1;exitX=0.5;exitY=1;exitDx=0;exitDy=0;endArrow=none;endFill=0;dashed=1;" parent="1" source="2Mf-9AT1YDmep9Q1KUnl-50" edge="1">
          <mxGeometry relative="1" as="geometry">
            <mxPoint x="440.344827586207" y="659.52" as="targetPoint" />
          </mxGeometry>
        </mxCell>
        <mxCell id="2Mf-9AT1YDmep9Q1KUnl-50" value="" style="rounded=1;whiteSpace=wrap;html=1;" parent="1" vertex="1">
          <mxGeometry x="430" y="469.52" width="20" height="140" as="geometry" />
        </mxCell>
        <mxCell id="2Mf-9AT1YDmep9Q1KUnl-51" value="" style="endArrow=classic;html=1;rounded=0;exitX=1;exitY=0.088;exitDx=0;exitDy=0;exitPerimeter=0;" parent="1" edge="1">
          <mxGeometry width="50" height="50" relative="1" as="geometry">
            <mxPoint x="300" y="479.52" as="sourcePoint" />
            <mxPoint x="430" y="479.52" as="targetPoint" />
          </mxGeometry>
        </mxCell>
        <mxCell id="2Mf-9AT1YDmep9Q1KUnl-52" value="checkInputData()" style="text;html=1;align=center;verticalAlign=middle;resizable=0;points=[];autosize=1;strokeColor=none;fillColor=none;" parent="1" vertex="1">
          <mxGeometry x="305" y="449.52" width="110" height="30" as="geometry" />
        </mxCell>
        <mxCell id="2Mf-9AT1YDmep9Q1KUnl-53" value="" style="endArrow=classic;html=1;rounded=0;" parent="1" edge="1">
          <mxGeometry width="50" height="50" relative="1" as="geometry">
            <mxPoint x="430" y="519.52" as="sourcePoint" />
            <mxPoint x="300" y="519.52" as="targetPoint" />
          </mxGeometry>
        </mxCell>
        <mxCell id="2Mf-9AT1YDmep9Q1KUnl-54" value="userFound()" style="text;html=1;align=center;verticalAlign=middle;resizable=0;points=[];autosize=1;strokeColor=none;fillColor=none;" parent="1" vertex="1">
          <mxGeometry x="325" y="489.52" width="90" height="30" as="geometry" />
        </mxCell>
        <mxCell id="2Mf-9AT1YDmep9Q1KUnl-55" value="" style="endArrow=classic;html=1;rounded=0;exitX=1;exitY=0.088;exitDx=0;exitDy=0;exitPerimeter=0;" parent="1" edge="1">
          <mxGeometry width="50" height="50" relative="1" as="geometry">
            <mxPoint x="300" y="559.52" as="sourcePoint" />
            <mxPoint x="430" y="559.52" as="targetPoint" />
          </mxGeometry>
        </mxCell>
        <mxCell id="2Mf-9AT1YDmep9Q1KUnl-56" value="getCloudData()" style="text;html=1;align=center;verticalAlign=middle;resizable=0;points=[];autosize=1;strokeColor=none;fillColor=none;" parent="1" vertex="1">
          <mxGeometry x="310" y="529.52" width="100" height="30" as="geometry" />
        </mxCell>
        <mxCell id="2Mf-9AT1YDmep9Q1KUnl-57" value="" style="endArrow=classic;html=1;rounded=0;" parent="1" edge="1">
          <mxGeometry width="50" height="50" relative="1" as="geometry">
            <mxPoint x="430" y="598.95" as="sourcePoint" />
            <mxPoint x="300" y="598.95" as="targetPoint" />
          </mxGeometry>
        </mxCell>
        <mxCell id="2Mf-9AT1YDmep9Q1KUnl-58" value="Send Data" style="text;html=1;align=center;verticalAlign=middle;resizable=0;points=[];autosize=1;strokeColor=none;fillColor=none;" parent="1" vertex="1">
          <mxGeometry x="330" y="568.95" width="80" height="30" as="geometry" />
        </mxCell>
        <mxCell id="2Mf-9AT1YDmep9Q1KUnl-59" value="" style="endArrow=classic;html=1;rounded=0;" parent="1" edge="1">
          <mxGeometry width="50" height="50" relative="1" as="geometry">
            <mxPoint x="280" y="618.95" as="sourcePoint" />
            <mxPoint x="110" y="618.95" as="targetPoint" />
          </mxGeometry>
        </mxCell>
        <mxCell id="2Mf-9AT1YDmep9Q1KUnl-60" value="mainMenu()" style="text;html=1;align=center;verticalAlign=middle;resizable=0;points=[];autosize=1;strokeColor=none;fillColor=none;" parent="1" vertex="1">
          <mxGeometry x="150" y="588.95" width="90" height="30" as="geometry" />
        </mxCell>
        <mxCell id="2Mf-9AT1YDmep9Q1KUnl-72" value="&lt;u&gt;:Admin&lt;/u&gt;" style="shape=umlActor;verticalLabelPosition=bottom;verticalAlign=top;html=1;outlineConnect=0;" parent="1" vertex="1">
          <mxGeometry x="600" y="200" width="40" height="80" as="geometry" />
        </mxCell>
        <mxCell id="2Mf-9AT1YDmep9Q1KUnl-73" style="edgeStyle=orthogonalEdgeStyle;rounded=0;orthogonalLoop=1;jettySize=auto;html=1;exitX=0.5;exitY=1;exitDx=0;exitDy=0;endArrow=none;endFill=0;dashed=1;" parent="1" source="2Mf-9AT1YDmep9Q1KUnl-74" edge="1">
          <mxGeometry relative="1" as="geometry">
            <mxPoint x="620" y="560" as="targetPoint" />
          </mxGeometry>
        </mxCell>
        <mxCell id="2Mf-9AT1YDmep9Q1KUnl-74" value="" style="rounded=1;whiteSpace=wrap;html=1;" parent="1" vertex="1">
          <mxGeometry x="610" y="320" width="20" height="40" as="geometry" />
        </mxCell>
        <mxCell id="2Mf-9AT1YDmep9Q1KUnl-75" style="edgeStyle=orthogonalEdgeStyle;rounded=0;orthogonalLoop=1;jettySize=auto;html=1;exitX=0.5;exitY=1;exitDx=0;exitDy=0;endArrow=none;endFill=0;dashed=1;" parent="1" source="2Mf-9AT1YDmep9Q1KUnl-76" edge="1">
          <mxGeometry relative="1" as="geometry">
            <mxPoint x="770" y="560" as="targetPoint" />
          </mxGeometry>
        </mxCell>
        <mxCell id="2Mf-9AT1YDmep9Q1KUnl-76" value="" style="rounded=1;whiteSpace=wrap;html=1;" parent="1" vertex="1">
          <mxGeometry x="760" y="335" width="20" height="195" as="geometry" />
        </mxCell>
        <mxCell id="2Mf-9AT1YDmep9Q1KUnl-79" value="" style="endArrow=classic;html=1;rounded=0;exitX=0.001;exitY=1.065;exitDx=0;exitDy=0;exitPerimeter=0;entryX=0;entryY=0.087;entryDx=0;entryDy=0;entryPerimeter=0;" parent="1" source="2Mf-9AT1YDmep9Q1KUnl-84" target="2Mf-9AT1YDmep9Q1KUnl-76" edge="1">
          <mxGeometry width="50" height="50" relative="1" as="geometry">
            <mxPoint x="930" y="350" as="sourcePoint" />
            <mxPoint x="760" y="350" as="targetPoint" />
          </mxGeometry>
        </mxCell>
        <mxCell id="2Mf-9AT1YDmep9Q1KUnl-80" style="edgeStyle=orthogonalEdgeStyle;rounded=0;orthogonalLoop=1;jettySize=auto;html=1;exitX=0.5;exitY=1;exitDx=0;exitDy=0;entryX=0.5;entryY=0;entryDx=0;entryDy=0;endArrow=none;endFill=0;dashed=1;" parent="1" source="2Mf-9AT1YDmep9Q1KUnl-81" target="2Mf-9AT1YDmep9Q1KUnl-76" edge="1">
          <mxGeometry relative="1" as="geometry" />
        </mxCell>
        <mxCell id="2Mf-9AT1YDmep9Q1KUnl-81" value="&lt;u&gt;:WebServer&lt;/u&gt;" style="rounded=1;whiteSpace=wrap;html=1;" parent="1" vertex="1">
          <mxGeometry x="720" y="200" width="100" height="80" as="geometry" />
        </mxCell>
        <mxCell id="2Mf-9AT1YDmep9Q1KUnl-82" style="edgeStyle=orthogonalEdgeStyle;rounded=0;orthogonalLoop=1;jettySize=auto;html=1;exitX=0.5;exitY=1;exitDx=0;exitDy=0;entryX=0.5;entryY=0;entryDx=0;entryDy=0;endArrow=none;endFill=0;dashed=1;" parent="1" source="2Mf-9AT1YDmep9Q1KUnl-83" edge="1">
          <mxGeometry relative="1" as="geometry">
            <mxPoint x="930" y="350" as="targetPoint" />
          </mxGeometry>
        </mxCell>
        <mxCell id="2Mf-9AT1YDmep9Q1KUnl-83" value="&lt;u&gt;:System&lt;/u&gt;" style="rounded=1;whiteSpace=wrap;html=1;" parent="1" vertex="1">
          <mxGeometry x="880" y="200" width="100" height="80" as="geometry" />
        </mxCell>
        <mxCell id="2Mf-9AT1YDmep9Q1KUnl-84" value="Click Launch Icon" style="text;html=1;align=center;verticalAlign=middle;resizable=0;points=[];autosize=1;strokeColor=none;fillColor=none;" parent="1" vertex="1">
          <mxGeometry x="630" y="320" width="120" height="30" as="geometry" />
        </mxCell>
        <mxCell id="2Mf-9AT1YDmep9Q1KUnl-85" value="" style="endArrow=classic;html=1;rounded=0;exitX=1;exitY=0.088;exitDx=0;exitDy=0;exitPerimeter=0;entryX=0;entryY=0.25;entryDx=0;entryDy=0;" parent="1" edge="1">
          <mxGeometry width="50" height="50" relative="1" as="geometry">
            <mxPoint x="780" y="365" as="sourcePoint" />
            <mxPoint x="920" y="365" as="targetPoint" />
          </mxGeometry>
        </mxCell>
        <mxCell id="2Mf-9AT1YDmep9Q1KUnl-86" value="Run.exe" style="text;html=1;align=center;verticalAlign=middle;resizable=0;points=[];autosize=1;strokeColor=none;fillColor=none;" parent="1" vertex="1">
          <mxGeometry x="815" y="335" width="70" height="30" as="geometry" />
        </mxCell>
        <mxCell id="2Mf-9AT1YDmep9Q1KUnl-88" value="Opens Status Terminal" style="text;html=1;align=center;verticalAlign=middle;resizable=0;points=[];autosize=1;strokeColor=none;fillColor=none;" parent="1" vertex="1">
          <mxGeometry x="780" y="370" width="140" height="30" as="geometry" />
        </mxCell>
        <mxCell id="2Mf-9AT1YDmep9Q1KUnl-95" style="edgeStyle=orthogonalEdgeStyle;rounded=0;orthogonalLoop=1;jettySize=auto;html=1;exitX=0.5;exitY=1;exitDx=0;exitDy=0;endArrow=none;endFill=0;dashed=1;" parent="1" source="2Mf-9AT1YDmep9Q1KUnl-96" edge="1">
          <mxGeometry relative="1" as="geometry">
            <mxPoint x="930" y="560" as="targetPoint" />
          </mxGeometry>
        </mxCell>
        <mxCell id="2Mf-9AT1YDmep9Q1KUnl-96" value="" style="rounded=1;whiteSpace=wrap;html=1;" parent="1" vertex="1">
          <mxGeometry x="920" y="350" width="20" height="180" as="geometry" />
        </mxCell>
        <mxCell id="2Mf-9AT1YDmep9Q1KUnl-97" value="" style="endArrow=classic;html=1;rounded=0;exitX=1;exitY=0.088;exitDx=0;exitDy=0;exitPerimeter=0;" parent="1" edge="1">
          <mxGeometry width="50" height="50" relative="1" as="geometry">
            <mxPoint x="780" y="439.52" as="sourcePoint" />
            <mxPoint x="920" y="440" as="targetPoint" />
          </mxGeometry>
        </mxCell>
        <mxCell id="2Mf-9AT1YDmep9Q1KUnl-98" value="Initialization()" style="text;html=1;align=center;verticalAlign=middle;resizable=0;points=[];autosize=1;strokeColor=none;fillColor=none;" parent="1" vertex="1">
          <mxGeometry x="805" y="409.52" width="90" height="30" as="geometry" />
        </mxCell>
        <mxCell id="2Mf-9AT1YDmep9Q1KUnl-99" value="" style="endArrow=classic;html=1;rounded=0;entryX=1;entryY=0.75;entryDx=0;entryDy=0;" parent="1" target="2Mf-9AT1YDmep9Q1KUnl-76" edge="1">
          <mxGeometry width="50" height="50" relative="1" as="geometry">
            <mxPoint x="920" y="479.52" as="sourcePoint" />
            <mxPoint x="790" y="479.52" as="targetPoint" />
          </mxGeometry>
        </mxCell>
        <mxCell id="2Mf-9AT1YDmep9Q1KUnl-100" value="Completes Setup" style="text;html=1;align=center;verticalAlign=middle;resizable=0;points=[];autosize=1;strokeColor=none;fillColor=none;" parent="1" vertex="1">
          <mxGeometry x="790" y="449.52" width="120" height="30" as="geometry" />
        </mxCell>
        <mxCell id="2Mf-9AT1YDmep9Q1KUnl-101" value="" style="endArrow=classic;html=1;rounded=0;exitX=1;exitY=0.088;exitDx=0;exitDy=0;exitPerimeter=0;entryX=0;entryY=0.944;entryDx=0;entryDy=0;entryPerimeter=0;" parent="1" target="2Mf-9AT1YDmep9Q1KUnl-96" edge="1">
          <mxGeometry width="50" height="50" relative="1" as="geometry">
            <mxPoint x="780" y="519.52" as="sourcePoint" />
            <mxPoint x="910" y="519.52" as="targetPoint" />
          </mxGeometry>
        </mxCell>
        <mxCell id="2Mf-9AT1YDmep9Q1KUnl-102" value="Standby For User" style="text;html=1;align=center;verticalAlign=middle;resizable=0;points=[];autosize=1;strokeColor=none;fillColor=none;" parent="1" vertex="1">
          <mxGeometry x="790" y="489.52" width="120" height="30" as="geometry" />
        </mxCell>
        <mxCell id="2Mf-9AT1YDmep9Q1KUnl-108" value="" style="endArrow=none;html=1;rounded=0;exitX=1;exitY=0.088;exitDx=0;exitDy=0;exitPerimeter=0;entryX=0;entryY=0.25;entryDx=0;entryDy=0;startArrow=classic;startFill=1;endFill=0;" parent="1" edge="1">
          <mxGeometry width="50" height="50" relative="1" as="geometry">
            <mxPoint x="780" y="400" as="sourcePoint" />
            <mxPoint x="920" y="400" as="targetPoint" />
          </mxGeometry>
        </mxCell>
        <mxCell id="2Mf-9AT1YDmep9Q1KUnl-109" value="&lt;u&gt;:Player&lt;/u&gt;" style="shape=umlActor;verticalLabelPosition=bottom;verticalAlign=top;html=1;outlineConnect=0;" parent="1" vertex="1">
          <mxGeometry x="1080" y="200" width="40" height="80" as="geometry" />
        </mxCell>
        <mxCell id="2Mf-9AT1YDmep9Q1KUnl-110" style="edgeStyle=orthogonalEdgeStyle;rounded=0;orthogonalLoop=1;jettySize=auto;html=1;exitX=0.5;exitY=1;exitDx=0;exitDy=0;endArrow=none;endFill=0;dashed=1;" parent="1" source="2Mf-9AT1YDmep9Q1KUnl-111" edge="1">
          <mxGeometry relative="1" as="geometry">
            <mxPoint x="1100" y="560" as="targetPoint" />
          </mxGeometry>
        </mxCell>
        <mxCell id="2Mf-9AT1YDmep9Q1KUnl-111" value="" style="rounded=1;whiteSpace=wrap;html=1;" parent="1" vertex="1">
          <mxGeometry x="1090" y="320" width="20" height="210" as="geometry" />
        </mxCell>
        <mxCell id="2Mf-9AT1YDmep9Q1KUnl-112" style="edgeStyle=orthogonalEdgeStyle;rounded=0;orthogonalLoop=1;jettySize=auto;html=1;exitX=0.5;exitY=1;exitDx=0;exitDy=0;endArrow=none;endFill=0;dashed=1;" parent="1" source="2Mf-9AT1YDmep9Q1KUnl-113" edge="1">
          <mxGeometry relative="1" as="geometry">
            <mxPoint x="1250" y="560" as="targetPoint" />
          </mxGeometry>
        </mxCell>
        <mxCell id="2Mf-9AT1YDmep9Q1KUnl-113" value="" style="rounded=1;whiteSpace=wrap;html=1;" parent="1" vertex="1">
          <mxGeometry x="1240" y="335" width="20" height="195" as="geometry" />
        </mxCell>
        <mxCell id="2Mf-9AT1YDmep9Q1KUnl-114" value="" style="endArrow=classic;html=1;rounded=0;exitX=0.001;exitY=1.065;exitDx=0;exitDy=0;exitPerimeter=0;entryX=0;entryY=0.087;entryDx=0;entryDy=0;entryPerimeter=0;" parent="1" source="2Mf-9AT1YDmep9Q1KUnl-119" target="2Mf-9AT1YDmep9Q1KUnl-113" edge="1">
          <mxGeometry width="50" height="50" relative="1" as="geometry">
            <mxPoint x="1410" y="350" as="sourcePoint" />
            <mxPoint x="1240" y="350" as="targetPoint" />
          </mxGeometry>
        </mxCell>
        <mxCell id="2Mf-9AT1YDmep9Q1KUnl-115" style="edgeStyle=orthogonalEdgeStyle;rounded=0;orthogonalLoop=1;jettySize=auto;html=1;exitX=0.5;exitY=1;exitDx=0;exitDy=0;entryX=0.5;entryY=0;entryDx=0;entryDy=0;endArrow=none;endFill=0;dashed=1;" parent="1" source="2Mf-9AT1YDmep9Q1KUnl-116" target="2Mf-9AT1YDmep9Q1KUnl-113" edge="1">
          <mxGeometry relative="1" as="geometry" />
        </mxCell>
        <mxCell id="2Mf-9AT1YDmep9Q1KUnl-116" value="&lt;u&gt;:WebServer&lt;/u&gt;" style="rounded=1;whiteSpace=wrap;html=1;" parent="1" vertex="1">
          <mxGeometry x="1200" y="200" width="100" height="80" as="geometry" />
        </mxCell>
        <mxCell id="2Mf-9AT1YDmep9Q1KUnl-117" style="edgeStyle=orthogonalEdgeStyle;rounded=0;orthogonalLoop=1;jettySize=auto;html=1;exitX=0.5;exitY=1;exitDx=0;exitDy=0;entryX=0.5;entryY=0;entryDx=0;entryDy=0;endArrow=none;endFill=0;dashed=1;" parent="1" source="2Mf-9AT1YDmep9Q1KUnl-118" edge="1">
          <mxGeometry relative="1" as="geometry">
            <mxPoint x="1410" y="350" as="targetPoint" />
          </mxGeometry>
        </mxCell>
        <mxCell id="2Mf-9AT1YDmep9Q1KUnl-118" value="&lt;u&gt;:System&lt;/u&gt;" style="rounded=1;whiteSpace=wrap;html=1;" parent="1" vertex="1">
          <mxGeometry x="1360" y="200" width="100" height="80" as="geometry" />
        </mxCell>
        <mxCell id="2Mf-9AT1YDmep9Q1KUnl-119" value="Click Launch Icon" style="text;html=1;align=center;verticalAlign=middle;resizable=0;points=[];autosize=1;strokeColor=none;fillColor=none;" parent="1" vertex="1">
          <mxGeometry x="1110" y="320" width="120" height="30" as="geometry" />
        </mxCell>
        <mxCell id="2Mf-9AT1YDmep9Q1KUnl-120" value="" style="endArrow=classic;html=1;rounded=0;exitX=1;exitY=0.088;exitDx=0;exitDy=0;exitPerimeter=0;entryX=0;entryY=0.25;entryDx=0;entryDy=0;" parent="1" edge="1">
          <mxGeometry width="50" height="50" relative="1" as="geometry">
            <mxPoint x="1260" y="365" as="sourcePoint" />
            <mxPoint x="1400" y="365" as="targetPoint" />
          </mxGeometry>
        </mxCell>
        <mxCell id="2Mf-9AT1YDmep9Q1KUnl-121" value="Run.exe" style="text;html=1;align=center;verticalAlign=middle;resizable=0;points=[];autosize=1;strokeColor=none;fillColor=none;" parent="1" vertex="1">
          <mxGeometry x="1295" y="335" width="70" height="30" as="geometry" />
        </mxCell>
        <mxCell id="2Mf-9AT1YDmep9Q1KUnl-122" value="Initalization()" style="text;html=1;align=center;verticalAlign=middle;resizable=0;points=[];autosize=1;strokeColor=none;fillColor=none;" parent="1" vertex="1">
          <mxGeometry x="1285" y="370" width="90" height="30" as="geometry" />
        </mxCell>
        <mxCell id="2Mf-9AT1YDmep9Q1KUnl-123" style="edgeStyle=orthogonalEdgeStyle;rounded=0;orthogonalLoop=1;jettySize=auto;html=1;exitX=0.5;exitY=1;exitDx=0;exitDy=0;endArrow=none;endFill=0;dashed=1;" parent="1" source="2Mf-9AT1YDmep9Q1KUnl-124" edge="1">
          <mxGeometry relative="1" as="geometry">
            <mxPoint x="1410" y="560" as="targetPoint" />
          </mxGeometry>
        </mxCell>
        <mxCell id="2Mf-9AT1YDmep9Q1KUnl-124" value="" style="rounded=1;whiteSpace=wrap;html=1;" parent="1" vertex="1">
          <mxGeometry x="1400" y="350" width="20" height="180" as="geometry" />
        </mxCell>
        <mxCell id="2Mf-9AT1YDmep9Q1KUnl-129" value="" style="endArrow=classic;html=1;rounded=0;exitX=1;exitY=0.088;exitDx=0;exitDy=0;exitPerimeter=0;entryX=0;entryY=0.944;entryDx=0;entryDy=0;entryPerimeter=0;" parent="1" edge="1">
          <mxGeometry width="50" height="50" relative="1" as="geometry">
            <mxPoint x="1260" y="469.42999999999995" as="sourcePoint" />
            <mxPoint x="1400" y="469.83000000000004" as="targetPoint" />
          </mxGeometry>
        </mxCell>
        <mxCell id="2Mf-9AT1YDmep9Q1KUnl-130" value="saveDataExists()" style="text;html=1;align=center;verticalAlign=middle;resizable=0;points=[];autosize=1;strokeColor=none;fillColor=none;" parent="1" vertex="1">
          <mxGeometry x="1275" y="439.42999999999995" width="110" height="30" as="geometry" />
        </mxCell>
        <mxCell id="2Mf-9AT1YDmep9Q1KUnl-131" value="" style="endArrow=none;html=1;rounded=0;exitX=1;exitY=0.088;exitDx=0;exitDy=0;exitPerimeter=0;entryX=0;entryY=0.25;entryDx=0;entryDy=0;startArrow=classic;startFill=1;endFill=0;" parent="1" edge="1">
          <mxGeometry width="50" height="50" relative="1" as="geometry">
            <mxPoint x="1260" y="400" as="sourcePoint" />
            <mxPoint x="1400" y="400" as="targetPoint" />
          </mxGeometry>
        </mxCell>
        <mxCell id="2Mf-9AT1YDmep9Q1KUnl-132" value="" style="endArrow=none;html=1;rounded=0;entryX=0;entryY=0.436;entryDx=0;entryDy=0;entryPerimeter=0;startArrow=classic;startFill=1;endFill=0;" parent="1" target="2Mf-9AT1YDmep9Q1KUnl-113" edge="1">
          <mxGeometry width="50" height="50" relative="1" as="geometry">
            <mxPoint x="1110" y="420" as="sourcePoint" />
            <mxPoint x="1230" y="410" as="targetPoint" />
          </mxGeometry>
        </mxCell>
        <mxCell id="2Mf-9AT1YDmep9Q1KUnl-133" value="queryUsNmPswd()" style="text;html=1;align=center;verticalAlign=middle;resizable=0;points=[];autosize=1;strokeColor=none;fillColor=none;" parent="1" vertex="1">
          <mxGeometry x="1110" y="390" width="120" height="30" as="geometry" />
        </mxCell>
        <mxCell id="2Mf-9AT1YDmep9Q1KUnl-134" value="" style="endArrow=classic;html=1;rounded=0;entryX=0;entryY=0.436;entryDx=0;entryDy=0;entryPerimeter=0;startArrow=none;startFill=0;endFill=1;" parent="1" edge="1">
          <mxGeometry width="50" height="50" relative="1" as="geometry">
            <mxPoint x="1110" y="460" as="sourcePoint" />
            <mxPoint x="1240" y="460" as="targetPoint" />
          </mxGeometry>
        </mxCell>
        <mxCell id="2Mf-9AT1YDmep9Q1KUnl-135" value="Enters User &amp;amp; Pass" style="text;html=1;align=center;verticalAlign=middle;resizable=0;points=[];autosize=1;strokeColor=none;fillColor=none;" parent="1" vertex="1">
          <mxGeometry x="1105" y="430" width="130" height="30" as="geometry" />
        </mxCell>
        <mxCell id="2Mf-9AT1YDmep9Q1KUnl-136" value="Initalization()" style="text;html=1;align=center;verticalAlign=middle;resizable=0;points=[];autosize=1;strokeColor=none;fillColor=none;" parent="1" vertex="1">
          <mxGeometry x="1285" y="479.43" width="90" height="30" as="geometry" />
        </mxCell>
        <mxCell id="2Mf-9AT1YDmep9Q1KUnl-137" value="" style="endArrow=none;html=1;rounded=0;exitX=1;exitY=0.088;exitDx=0;exitDy=0;exitPerimeter=0;entryX=0;entryY=0.25;entryDx=0;entryDy=0;startArrow=classic;startFill=1;endFill=0;" parent="1" edge="1">
          <mxGeometry width="50" height="50" relative="1" as="geometry">
            <mxPoint x="1260" y="509.43" as="sourcePoint" />
            <mxPoint x="1400" y="509.43" as="targetPoint" />
          </mxGeometry>
        </mxCell>
        <mxCell id="2Mf-9AT1YDmep9Q1KUnl-138" value="" style="endArrow=none;html=1;rounded=0;entryX=0;entryY=0.436;entryDx=0;entryDy=0;entryPerimeter=0;startArrow=classic;startFill=1;endFill=0;" parent="1" edge="1">
          <mxGeometry width="50" height="50" relative="1" as="geometry">
            <mxPoint x="1110" y="519.71" as="sourcePoint" />
            <mxPoint x="1240" y="519.71" as="targetPoint" />
          </mxGeometry>
        </mxCell>
        <mxCell id="2Mf-9AT1YDmep9Q1KUnl-139" value="launchDemo()" style="text;html=1;align=center;verticalAlign=middle;resizable=0;points=[];autosize=1;strokeColor=none;fillColor=none;" parent="1" vertex="1">
          <mxGeometry x="1120" y="489.71" width="100" height="30" as="geometry" />
        </mxCell>
      </root>
    </mxGraphModel>
  </diagram>
</mxfile>
